<svg width="1024" height="1024" viewBox="0 0 1024 1024" fill="none" xmlns="http://www.w3.org/2000/svg">
<path d="M494.804 0.294537C777.811 -9.21673 1014.8 212.803 1023.74 495.828C1032.68 778.854 810.191 1015.39 527.148 1023.77C244.905 1032.13 9.17961 810.398 0.260456 528.173C-8.6587 245.947 212.595 9.77807 494.804 0.294537Z" fill="#DFD9BE"/>
<path d="M484.043 22.5144C754.786 7.29552 986.494 214.678 1001.28 485.445C1016.06 756.212 808.3 987.584 537.509 1001.93C267.336 1016.24 36.6068 809.06 21.8594 538.911C7.11196 268.762 213.918 37.6986 484.043 22.5144Z" fill="#39002C"/>
<path d="M485.61 108.807C493.921 90.6538 523.583 89.769 534.983 106.117C541.026 116.038 540.491 123.754 541.304 135.202C552.754 138.456 558.047 139.647 568.554 145.493C577.648 137.307 586.301 128.485 599.554 129.113C607.221 129.477 612.974 132.245 618.164 137.789C624.501 143.527 629.864 151.6 630.05 160.371C630.324 173.247 620.254 180.766 612.845 189.893C614.198 193.418 619.748 207.239 620.065 210.115C631.092 220.148 648.784 211.499 657.069 227.354C665.812 236.573 662.824 265.126 652.935 272.857C645.026 279.04 632.867 279.33 623.417 279.728C620.269 287.858 617.711 294.88 613.624 302.606C622.679 314.244 631.178 320.024 629.488 337.034C628.553 346.433 620.53 354.946 613.23 360.498C605.332 366.505 599.071 367.379 589.497 366.892C580.119 360.959 575.305 354.095 567.459 346.182C558.455 350.224 551.609 352.94 542.497 356.616C542.328 367.364 543.85 384.543 535.424 392.198C524.032 402.547 493.705 402.12 483.643 389.91C476.495 381.238 479.024 366.564 477.961 356.094C470.482 352.288 461.585 349.681 453.655 346.07C434.703 364.359 426.523 380.153 400.478 353.342C396.069 348.485 390.027 341.253 390.337 334.305C391.293 312.899 414.109 317.467 407.604 294.143C399.806 266.186 369.032 290.458 361.752 260.046C360.528 254.931 360.855 233.535 363.529 230.063C373.629 208.828 388.769 223.426 403.289 209.67C406.906 202.086 407.907 197.415 408.633 189.205C401.249 174.663 384.235 166.139 398.053 146.189C402.718 137.209 412.004 130.942 422.063 129.855C435.12 128.445 444.551 136.371 453.902 144.09C455.387 143.678 461.784 141.001 463.507 140.316C470.001 137.739 474.498 136.528 481.235 134.925C482.418 125.905 480.683 117.888 485.61 108.807Z" fill="#7A0353"/>
<path d="M568.554 145.493C577.648 137.308 586.301 128.486 599.554 129.114C607.221 129.477 612.974 132.245 618.164 137.789C613.683 137.198 608.607 132.117 598.682 132.264C584.314 132.478 577.851 139.744 568.27 148.871C560.263 144.288 553.232 142.337 544.519 139.528C542.078 138.741 542.045 137.333 541.305 135.203C552.755 138.456 558.048 139.647 568.554 145.493Z" fill="#DFD9BE"/>
<path d="M398.055 146.189C402.719 137.209 412.006 130.943 422.065 129.856C435.122 128.445 444.553 136.372 453.903 144.09L451.715 144.75C442.436 137.168 435.164 132.56 422.538 132.876C410.183 133.186 401.047 145.411 398.055 146.189Z" fill="#DFD9BE"/>
<path d="M485.609 108.807C493.921 90.6538 523.582 89.769 534.982 106.117C532.83 105.78 529.081 103.313 527.191 102.065C518.549 96.3613 507.857 96.0688 498.543 100.165C494.395 101.833 486.993 108.538 485.609 108.807Z" fill="#DFD9BE"/>
<path d="M403.292 209.671C401.508 224.252 386.453 217.144 375.903 220.981C370.623 222.901 366.549 228.994 363.531 230.063C373.632 208.829 388.772 223.427 403.292 209.671Z" fill="#DFD9BE"/>
<path d="M620.062 210.115C631.089 220.148 648.781 211.499 657.066 227.354C652.677 224.399 648.478 221.58 643.338 219.98C635.414 217.515 621.107 221.536 620.062 210.115Z" fill="#DFD9BE"/>
<path d="M481.232 134.926C481.199 137.357 481.619 137.286 480.421 138.84C471.345 140.943 465.282 142.281 456.86 146.765C455.042 147.733 453.204 145.998 451.711 144.75L453.899 144.09C455.384 143.679 461.781 141.002 463.505 140.317C469.999 137.739 474.496 136.529 481.232 134.926Z" fill="#DFD9BE"/>
<path d="M500.101 159.835C548.899 153.51 593.547 188.044 599.689 236.867C605.83 285.688 571.127 330.204 522.284 336.163C473.699 342.09 429.469 307.611 423.361 259.048C417.251 210.486 451.563 166.128 500.101 159.835Z" fill="#39002C"/>
<path d="M542.664 228.77C549.187 222.612 558.672 220.754 567.038 223.993C576.699 227.735 582.721 237.414 581.812 247.735C580.901 258.054 573.277 266.53 563.109 268.523C552.942 270.515 542.684 265.545 537.944 256.332C533.206 247.119 535.13 235.883 542.664 228.77Z" fill="#7A0353"/>
<path d="M542.672 228.77C549.195 222.612 558.68 220.754 567.046 223.993C564.484 225.276 556.32 223.834 553.161 224.368C549.858 224.925 545.781 228.128 542.672 228.77Z" fill="#8A0663"/>
<path d="M449.786 226.84C456.336 222.229 464.799 221.321 472.177 224.438C481.919 228.555 487.646 238.738 486.102 249.201C484.559 259.664 476.136 267.761 465.62 268.888C455.104 270.016 445.155 263.891 441.428 253.992C437.702 244.094 441.138 232.929 449.786 226.84Z" fill="#7A0353"/>
<path d="M449.797 226.84C456.346 222.229 464.809 221.321 472.188 224.438L470.995 224.441C470.348 224.439 468.229 224.355 467.7 224.179C463.924 222.92 451.787 227.232 449.797 226.84Z" fill="#8A0663"/>
<path d="M482.852 646.234C484.64 640.217 487.003 637.705 492.399 634.271C499.111 630.002 518.347 630.182 525.557 632.345C530.739 633.905 535.081 637.476 537.612 642.26C538.721 644.39 539.65 646.706 540.191 649.049C540.78 655.292 539.653 670.957 542.196 674.111C551.655 678.158 559.89 681.532 568.85 686.747C593.587 664.433 597.522 653.072 623.141 684.25C626.146 687.907 628.345 690.368 630.345 694.79C635.426 707.872 619.806 715.714 612.68 724.015C617.65 730.741 619.712 736.245 622.628 743.987C624.385 748.653 625.823 753.233 630.493 755.657L631.481 755.802C644.04 757.564 658.538 752.615 662.419 768.23C664.408 775.775 664.008 801.138 660.245 808.876C654.124 821.458 631.773 809.305 624.594 816.882C619.312 829.869 619.483 835.734 611.342 848.045C617.395 853.219 626.368 861.223 630.855 867.923C631.612 869.053 633.031 874.173 633.468 875.722C629.263 885.47 605.831 914.108 593.276 906.2C585.253 901.147 576.446 890.747 569.241 883.899C557.706 889.807 550.512 892.501 537.766 894.847C538.71 944.525 540.73 938.963 491.241 938.243C486.465 934.219 484.324 931.327 484.048 924.696C483.639 914.901 484.328 904.607 484.13 894.734C474.472 894.001 462.638 888.481 454.318 883.743C445.303 895.12 427.431 916.898 412.889 902.392C406.129 895.647 397.805 888.697 391.819 881.306C391.318 877.38 389.919 867.012 394 864.769C397.478 861.246 398.305 860.668 402.486 858.053C406.222 852.975 408.174 851.034 411.741 845.301C408.016 835.198 403.27 824.853 399.334 814.327C387.743 812.463 369.991 817.022 363.832 804.649C360.833 798.621 360.7 777.886 362.69 771.68C367.588 754.408 384.746 756.821 398.918 756.503C401.052 752.847 404.923 741.642 406.555 737.212C406.915 735.157 408.681 730.233 409.404 728.021C403.051 714.548 385.114 708.738 391.265 691.957C393.121 686.334 395.198 685.405 399.038 681.468C419.426 660.565 426.695 660.944 446.832 682.02C448.176 683.516 450.158 685.075 451.719 686.402C462.483 682.576 469.587 678.502 481.758 674.879C483.618 670.417 481.038 652.667 482.852 646.234Z" fill="#7A0353"/>
<path d="M568.849 686.747C593.586 664.433 597.521 653.072 623.14 684.25C626.145 687.907 628.345 690.368 630.344 694.79L629.48 694.984L628.677 694.059C598.27 659.337 599.37 661.75 568.914 690.634C561.43 687.351 552.246 683.164 545.125 679.125C543.044 677.945 542.527 676.353 542.195 674.11C551.654 678.158 559.889 681.532 568.849 686.747Z" fill="#EDB3C1"/>
<path d="M482.852 646.234C484.64 640.217 487.003 637.705 492.399 634.271C499.11 630.002 518.347 630.182 525.557 632.345C530.739 633.905 535.081 637.476 537.612 642.26C538.721 644.39 539.65 646.706 540.191 649.049C534.669 643.21 533.696 640.022 526.407 635.419C518.596 634.693 510.355 635.027 502.511 635.172C493.583 635.339 490.164 639.184 484.391 645.747L483.794 646.432L482.852 646.234Z" fill="url(#paint0_linear_993_27752)"/>
<path d="M391.266 691.957C393.121 686.334 395.198 685.405 399.038 681.468C419.426 660.565 426.695 660.944 446.833 682.02L445.577 683.275C438.21 676.157 433.937 670.429 423.27 669.615C411.271 668.698 394.921 692.754 391.266 691.957Z" fill="#FDDBDF"/>
<path d="M398.924 756.503L402.234 757.123C396.945 764.805 383.437 757.532 375.596 761.62C372.742 763.106 364.236 772.588 362.695 771.68C367.593 754.408 384.752 756.82 398.924 756.503Z" fill="#FDDBDF"/>
<path d="M481.76 674.878C481.94 676.134 482.433 677.355 481.723 677.843C476.823 681.218 459.772 688.295 454.231 690.094C451.302 687.857 448.368 685.682 445.578 683.274L446.834 682.019C448.178 683.516 450.16 685.074 451.721 686.401C462.485 682.575 469.589 678.501 481.76 674.878Z" fill="#EDB3C1"/>
<path d="M630.489 755.656L631.477 755.8C644.036 757.563 658.534 752.614 662.415 768.229L661.651 768.552C658.208 765.613 657.649 764.624 653.597 761.97C647.516 757.984 630.743 761.385 626.695 757.094C627.832 755.565 627.888 756.047 630.489 755.656Z" fill="#E794B8"/>
<path d="M406.558 737.211C406.78 744.078 401.731 752.463 402.232 757.122L398.922 756.502C401.056 752.846 404.926 741.641 406.558 737.211Z" fill="#E794B8"/>
<path d="M402.487 858.053L402.866 858.932C400.706 861.576 397.439 864.226 394 864.768C397.478 861.246 398.306 860.668 402.487 858.053Z" fill="#D06F97"/>
<path d="M459.09 857.582C438.725 838.127 426.916 823.33 423.16 794.3C416.085 744.017 454.661 700.425 503.554 695.716C579.765 688.376 627.431 773.903 585.109 836.1C582.034 840.62 576.69 845.7 573.122 849.903L573.428 851.134C560.228 869.089 522.746 885.108 500.461 878.378C495.116 877.566 490.298 876.097 485.148 874.521C479.846 872.888 460.144 863.718 459.09 857.582Z" fill="#39002C"/>
<path d="M573.122 849.902L573.428 851.134C560.228 869.089 522.746 885.108 500.461 878.378L500.957 877.178C503.392 876.227 508.366 876.835 511.215 876.99L506.469 875.958C535.462 876.044 551.793 869.524 573.122 849.902Z" fill="#C23E90"/>
<path d="M459.094 857.582C468.289 864.636 475.344 867.927 486.249 871.884L485.151 874.52C479.85 872.888 460.148 863.718 459.094 857.582Z" fill="#C23E90"/>
<path d="M486.247 871.885C493.247 873.986 499.162 875.227 506.47 875.959L511.215 876.991C508.367 876.835 503.393 876.228 500.958 877.179L500.462 878.379C495.117 877.566 490.299 876.098 485.148 874.521L486.247 871.885Z" fill="#D06F97"/>
<path d="M461.396 759.852C473.006 756.682 486.829 768.892 487.806 779.507C492 825.172 421.053 813.464 441.956 770.634C442.853 768.795 445.117 766.386 447.022 765.379C452.408 761.857 455.182 760.92 461.396 759.852Z" fill="#7A0353"/>
<path d="M447.023 765.38C452.409 761.858 455.184 760.92 461.398 759.853C459.544 762.17 449.935 765.51 447.023 765.38Z" fill="#8A0663"/>
<path d="M553.905 760.331C567.118 757.631 580.026 766.133 582.76 779.34C585.493 792.547 577.024 805.475 563.824 808.242C550.577 811.02 537.593 802.513 534.849 789.259C532.105 776.005 540.645 763.042 553.905 760.331Z" fill="#7A0353"/>
<path d="M738.819 414.419C760.741 413.131 793.988 414.434 816.773 414.444L860.704 414.688C879.397 414.861 897.561 412.846 910.227 430.043C913.807 434.933 916.188 440.597 917.178 446.577C918.399 453.767 918.081 466.06 918.099 473.637L918.064 516.631C918.023 528.888 919.48 542.94 917.508 554.948C916.543 560.821 913.706 566.011 908.681 569.354C904.112 572.393 897.888 573.165 892.573 572.06C886.275 570.751 881.837 565.296 879.924 559.402C874.832 543.719 882.776 477.666 876.847 469.724C875.465 467.873 873.189 466.725 870.914 466.501C868.779 466.292 866.57 466.763 864.975 468.293C863.631 469.58 863.121 471.12 862.917 472.908C862.065 480.367 862.727 488.564 862.761 496.089C862.831 512.391 863.132 528.772 862.388 545.058C842.862 545.958 822.178 544.4 802.472 544.903C782.739 545.405 762.356 545.086 742.593 544.705L742.482 497.714C742.464 491.6 743.69 469.424 739.269 466.255C735.034 465.777 731.414 468.513 727.742 470.672C728.079 490.994 728.217 511.32 728.156 531.645C728.079 540.283 728.209 549.469 727.269 558.031C725.344 575.583 700.887 580.248 689.235 569.173C682.497 562.768 681.558 555.66 681.121 546.728C680.534 521.729 680.943 496.346 680.588 471.385C680.048 433.389 702.56 415.875 738.819 414.419Z" fill="#DFD9BE"/>
<path d="M742.555 555.748C748.349 555.638 754.572 555.699 760.366 555.885C794.343 556.969 829.074 555.135 862.98 556.795C863.488 589.278 862.855 622.252 863.007 654.8C863.097 674.001 863.055 694.261 862.202 713.444C861.784 722.851 857.225 726.791 850.471 732.299C851.827 732.843 853.178 733.399 854.524 733.966C866.238 738.912 869.299 741.436 874.113 753.264C864.804 753.827 812.732 755.084 806.136 752.812C804.997 750.444 805.816 745.576 807.041 743.438C810.521 737.378 817.514 734.593 823.709 732.205C822.912 731.48 822.129 730.739 821.359 729.985C810.113 718.909 811.394 708.34 811.486 693.946C811.568 681.209 811.623 668.423 811.608 655.683L811.612 604.565C804.504 606.33 802.923 606.248 795.698 605.287C795.335 628.528 795.178 651.772 795.23 675.015C795.221 683.595 795.273 692.672 795.225 701.223C795.131 718.551 794.073 722.546 779.584 731.898L781.114 732.733C793.126 739.303 794.464 740.264 798.248 753.17C789.577 753.243 736.221 754.412 730.898 752.671C728.685 747.758 734.421 740.365 738.455 737.829C742.911 735.028 747.855 732.931 752.649 730.761C749.907 727.802 744.24 721.9 743.723 718.124C741.676 703.187 742.524 683.783 742.511 668.636L742.555 555.748Z" fill="#DFD9BE"/>
<path d="M171.926 414.274C206.973 413.064 243.499 414.685 278.648 414.353C289.261 414.252 290.099 420.776 290.138 429.65C290.323 472.333 289 515.058 288.998 557.748C288.599 559.56 289.109 565.179 287.119 566.069C278.315 570.007 262.925 568.536 253.491 568.414L251.977 568.689C250.189 571.32 251.014 589.568 251.056 594.518C240.761 595.761 211.225 594.972 199.315 594.925L199.205 569.225C194.381 568.955 164.588 570.301 164.24 564.583C161.41 518.106 163.15 470.743 162.795 424.077C162.75 418.298 166.873 415.5 171.926 414.274Z" fill="#DFD9BE"/>
<path d="M182.382 461.305C211.686 461.503 240.993 461.496 270.297 461.281L270.478 484.099C241.048 483.952 211.617 483.969 182.188 484.148L182.382 461.305Z" fill="#39002C"/>
<path d="M182.491 423.93C198.327 422.785 202.869 441.961 185.779 448.322C170.002 446.36 165.114 430.893 182.491 423.93Z" fill="#39002C"/>
<path d="M585.68 435.248C607.788 435.141 636.914 434.087 658.66 435.413C658.905 446.791 658.945 458.173 658.78 469.553C640.608 469.811 622.198 469.157 603.901 468.924C593.871 468.795 583.064 468.688 583.216 482.472C583.379 497.374 598.86 495.212 609.21 495.492C624.658 495.767 645.944 493.03 657.496 505.783C673.587 523.545 672.718 566.416 655.129 583.181C642.211 595.492 624.664 593.338 608.313 593.083L534.378 593.112C534.037 581.683 534.37 569.113 534.458 557.598C548.891 557.304 563.365 556.808 577.799 556.83C584.425 556.839 591.074 557.347 597.693 557.214C601.962 557.129 606.667 556.551 609.664 553.148C611.783 550.739 612.401 547.439 612.229 544.312C610.976 521.584 561.732 544.147 539.568 523.201C529.149 513.354 525.382 497.488 525.306 483.618C525.231 470.154 527.891 456.514 537.746 446.627C550.873 433.456 568.664 435.387 585.68 435.248Z" fill="#DFD9BE"/>
<path d="M479.663 434.034L531.221 434.236C523.028 452.233 516.844 463.595 509.133 482.582C493.984 517.392 481.619 558.739 466.019 593.596C450.011 593.82 434.002 593.819 417.995 593.589C406.701 551.818 395.906 510.121 383.32 468.709C379.977 457.706 376.228 445.225 373.828 434.112C388.52 433.711 405.354 434.137 420.197 434.187C422.781 445.169 427.641 459.977 430.919 471.058C436.372 489.347 441.582 507.707 446.546 526.133C448.08 522.37 449.169 518.26 450.526 514.413C459.915 487.782 468.63 460.011 479.663 434.034Z" fill="#DFD9BE"/>
<path d="M190.113 301.216C201.972 300.739 255.268 299.445 263.352 303.252C267.415 309.779 266.558 326.024 266.388 333.881C265.987 352.386 267.401 371.199 265.794 389.573C265.579 392.036 262.666 393.682 260.755 394.712C245.15 396.081 206.137 395.77 189.594 395.375C187.552 393.707 186.132 391.964 184.38 389.995C184.027 371.539 183.906 353.08 184.016 334.622C184.042 325.984 183.813 316.547 184.672 307.953C185.038 304.292 187.065 303.453 190.113 301.216Z" fill="#DFD9BE"/>
<path d="M207.398 382.87C209.401 383.576 210.603 384.54 212.415 385.691L212.492 386.757C209.499 386.951 208.047 385.571 207.398 382.87Z" fill="#DFD9BE"/>
<path d="M798.652 313.437C823.12 312.246 843.935 331.088 845.176 355.555C846.417 380.02 827.616 400.873 803.152 402.163C778.619 403.458 757.694 384.591 756.449 360.055C755.205 335.519 774.114 314.633 798.652 313.437Z" fill="#DFD9BE"/>
<path d="M263.913 598.872C271.691 598.719 279.47 598.706 287.249 598.83C286.219 631.91 287.066 668.671 287.145 701.955L272.043 701.918L248.175 701.962C247.933 667.693 247.931 633.421 248.17 599.151L263.913 598.872Z" fill="#DFD9BE"/>
<path d="M167.034 598.896C178.753 598.642 190.478 598.667 202.195 598.972C202.255 607.643 202.622 700.028 201.671 701.814L199.756 702.06L164.26 702.434C164.244 691.511 162.989 602.114 164.915 599.084L167.034 598.896Z" fill="#DFD9BE"/>
<path d="M302.797 518.373C317.694 517.989 335.173 518.273 350.152 518.492L350.068 584.799L302.976 584.723L302.797 518.373Z" fill="#DFD9BE"/>
<path d="M103.343 517.619C119.041 518.071 134.051 517.514 149.499 517.855C149.56 539.907 149.488 561.958 149.281 584.009C146.71 584.398 137.694 584.21 134.635 584.206L103.205 584.105C102.557 562.86 103.101 539.007 103.343 517.619Z" fill="#DFD9BE"/>
<path d="M321.358 409.465C347.59 409.35 358.644 434.502 342.99 455.163C341.585 457.017 337.483 459.809 335.455 461.291C334.886 473.581 336.195 498.406 334.829 508.631C333.171 510.165 333.125 509.62 330.101 509.702L318.127 509.627C317.813 493.063 318.052 476.303 317.772 459.649C289.679 448.306 295.543 413.494 321.358 409.465Z" fill="#DFD9BE"/>
<path d="M125.955 411.391C136.931 410.561 147.832 415.423 153.299 425.255C156.311 430.641 157.027 437.011 155.285 442.929C152.255 453.155 144.616 457.495 136.038 462.07L135.874 509.744C129.963 510.088 124.049 510.342 118.13 510.508C117.211 496.132 117.775 474.535 117.632 459.586C112.19 455.168 108.014 451.205 105.811 444.299C103.828 437.93 104.507 431.029 107.697 425.169C111.893 417.355 117.882 413.851 125.955 411.391Z" fill="#DFD9BE"/>
<path d="M194.531 709.8L199.876 709.825L199.696 727.333L222.543 727.595L222.449 754.208C206.207 753.742 189.351 753.975 173.061 753.992L145.602 753.909L146.009 727.436C154.076 727.15 160.569 727.013 168.661 727.282L168.498 710.056C177.176 710.124 185.856 710.038 194.531 709.8Z" fill="#DFD9BE"/>
<path d="M251.563 710.238C261.944 710.216 272.324 710.126 282.704 709.965L282.654 727.573L302.177 727.488C302.479 736.412 302.654 745.338 302.701 754.265C295.825 754.405 288.544 754.195 281.636 754.109L229.359 754.139L229.422 727.58L251.746 727.66C251.546 721.856 251.485 716.047 251.563 710.238Z" fill="#DFD9BE"/>
<path d="M656.604 929.238L722.614 932.068C715.883 934.99 706.695 939.998 699.675 943.359C683.037 950.088 667.699 954.573 650.266 958.917C652.613 949.509 654.617 938.82 656.604 929.238Z" fill="#7A0353"/>
<path d="M658.306 71.0094C663.366 71.0538 678.676 70.4645 682.291 72.1451C690.382 75.9072 723.071 86.4183 728.103 91.377L727.065 92.2215C704.446 92.5211 681.051 93.6859 658.375 94.4513C657.973 87.2725 658.009 78.119 658.306 71.0094Z" fill="#7A0353"/>
<path d="M364.377 928.806C365.146 928.738 364.664 928.704 365.745 929.291C367.224 935.397 368.784 951.574 369.04 958.006C350.105 955.383 340.355 952.15 322.811 944.969C316.352 942.435 308.614 939.202 302.734 935.574C322.617 932.79 345.081 932.139 364.377 928.806Z" fill="#7A0353"/>
<path d="M279.511 894.944C280.911 894.821 284.586 894.49 285.725 894.987C294.637 898.891 313.469 907.09 320.962 912.29C309.165 914.867 295.668 916.126 283.651 916.717C282.055 916.803 276.589 917.116 275.288 916.799C262.957 913.791 252.358 904.009 240.876 898.003L239.766 897.429C253.021 896.711 266.269 895.883 279.511 894.944Z" fill="#7A0353"/>
<path d="M738.167 892.418C743.998 891.916 772.418 896.683 779.704 897.614C772.425 902.778 757.249 914.594 748.866 916.206C741.267 916.08 710.149 915.833 706.344 910.353C711.766 906.372 730.593 896.833 738.167 892.418Z" fill="#7A0353"/>
<path d="M364.744 68.1494L365.309 68.2964C366.747 70.8396 367.842 90.9424 368.135 95.3714C348.621 94.495 325.347 94.8362 305.488 94.4798C303.622 94.5588 304.271 94.624 302.5 94.0998C306.736 87.5575 355.568 71.0698 364.744 68.1494Z" fill="#7A0353"/>
<path d="M730.618 108.75C749.327 106.771 755.712 107.917 771.848 118.132C777.066 121.435 782 124.087 787.302 127.994L761.199 128.559C754.223 128.904 744.464 129.857 738.319 127.079C727.814 122.33 716.605 115.957 706.453 110.485L730.618 108.75Z" fill="#7A0353"/>
<path d="M277.241 110.518C291.214 109.924 307.717 110.514 321.81 110.899C314.909 115.836 294.462 125.817 286.303 129.556C277.504 131.084 252.724 130.825 242.305 131.116C250.145 124.392 267.226 113.13 277.241 110.518Z" fill="#7A0353"/>
<path d="M766.516 145.917C778.856 145.367 793.79 145.632 806.344 145.533C810.633 147.877 832.777 163.255 833 167.165C821.089 166.716 808.963 168.286 796.955 168.694C789.956 164.395 772.483 151.442 766.516 145.917Z" fill="#7A0353"/>
<path d="M794.033 855.728C803.966 855.598 818.731 856.963 829.105 857.524C822.57 863.319 808.972 876.02 801.836 879.301C790.855 879.367 776.163 878.056 765.148 876.649C771.616 871.239 786.502 861.285 794.033 855.728Z" fill="#7A0353"/>
<path d="M223.477 857.565C229.288 856.784 230.96 857.053 235.967 860.211C243.271 864.816 250.246 871.034 256.73 876.686C245.972 877.435 235.203 878.034 224.429 878.484C221.324 878.475 218.098 878.325 214.984 878.228C206.527 872.221 199.334 864.72 190.875 858.5C202.276 858.501 212.061 858.44 223.477 857.565Z" fill="#7A0353"/>
<path d="M918.32 315.594C925.331 317.29 934.133 318.124 941.312 318.679C948.64 330.771 952.947 343.182 957.759 356.382C949.243 354.637 942.895 353.571 934.339 352.599C929.001 341.317 923.527 327.343 918.32 315.594Z" fill="#7A0353"/>
<path d="M958.322 670.746L958.83 671.177C958.574 675.014 944.9 700.891 942.001 705.412C935.069 707.169 925.779 710.343 918.767 712.526L918.281 711.972C918.226 711.032 930.014 682.053 931.437 678.638C937.554 676.102 951.494 672.606 958.322 670.746Z" fill="#7A0353"/>
<path d="M103.039 595.271C110.015 595.159 143.299 594.642 148.242 596.146C151.63 601.281 145.827 607.641 142.232 611.211C126.434 623.137 104.487 615.787 103.039 595.271Z" fill="#DFD9BE"/>
<path d="M301.68 595.871C317.828 595.744 333.976 595.776 350.122 595.964C348.03 602.866 347.508 605.217 342.573 610.776C339.274 613.595 336.443 615.46 332.231 616.726C326.426 618.525 320.136 617.866 314.831 614.901C306.946 610.486 303.83 604.112 301.68 595.871Z" fill="#DFD9BE"/>
<path d="M893.433 774.358C896.192 774.132 899.553 773.583 902.12 774.346C901.585 778.026 888.251 795.035 885.154 798.275C875.973 799.548 867.321 800.331 858.087 801.156L850.273 801.79C859.438 792.751 865.868 784.696 874.043 774.708C880.507 774.966 886.982 774.849 893.433 774.358Z" fill="#7A0353"/>
<path d="M930.083 725.483L931.611 725.529L931.93 726.352C929.215 732.958 918.909 748.964 914.89 755.461C906.379 754.932 897.109 755.311 888.596 755.864L886.673 755.763L886.125 755.035C892.236 745.98 897.31 739.099 903.052 729.594C913.726 728.799 919.612 728.347 930.083 725.483Z" fill="#7A0353"/>
<path d="M231.769 148.849C240.207 148.413 248.684 148.569 257.136 148.619C251.903 153.079 246.429 157.364 241.122 161.701C232.973 168.364 226.887 168.393 217.061 169.21C208.549 170.368 199.798 171.111 191.117 172.282C196.679 167.682 202.34 162.987 207.893 158.391C216.421 151.334 220.792 149.354 231.769 148.849Z" fill="#7A0353"/>
<path d="M836.667 817.498C844.386 816.759 859.79 817.475 867.873 817.654C862.207 824.398 851.799 839.32 843.684 840.239C833.23 840.777 822.853 840.63 812.391 840.579C821.005 832.92 828.368 825.427 836.667 817.498Z" fill="#7A0353"/>
<path d="M163.887 819.343C172.612 819.127 181.341 819.019 190.069 819.019C197.417 825.529 202.252 832.65 210.28 838.883L201.149 839.602C192.672 840.127 184.026 839.794 175.086 840.383C168.416 835.336 161.187 826.853 156.242 820.128C158.031 819.174 161.595 819.408 163.887 819.343Z" fill="#7A0353"/>
<path d="M857.797 224.374C866.135 224.41 874.475 224.391 882.814 224.317C886.865 227.468 904.492 247.4 904.984 251.092C895.351 250.811 887.006 250.893 877.363 251.164C874.121 246.728 859.067 228.224 857.797 224.374Z" fill="#7A0353"/>
<path d="M832.083 184.221L847.707 183.671C855.939 191.402 864.04 199.786 871.943 207.856C867.532 207.508 864.578 207.645 860.166 207.816C854.137 208.142 848.112 208.548 842.093 209.035C833.32 199.758 826.748 193.371 817.344 184.64C822.2 184.679 827.217 184.413 832.083 184.221Z" fill="#7A0353"/>
<path d="M119.992 774.705C130.915 775.963 141.851 777.119 152.796 778.175C160.04 785.191 166.611 793.102 173.776 800.359C163.583 800.7 151.457 800.356 141.111 800.332C133.583 789.952 128.965 784.266 119.992 774.705Z" fill="#7A0353"/>
<path d="M888.852 267.907C896.666 267.742 905.056 268.144 912.911 268.374C920.187 277.224 926.467 288.882 931.596 299.139C923.298 298.541 916.792 298.264 908.475 298.267C902.234 287.746 896.295 277.648 888.852 267.907Z" fill="#7A0353"/>
<path d="M92.5703 726.991C101.118 729.3 109.665 730.272 118.365 732.075C124.926 738.986 131.981 750.195 137.277 758.339C130.775 758.117 117.208 756.085 109.811 755.368C102.477 745.85 97.4265 737.965 92.5703 726.991Z" fill="#7A0353"/>
<path d="M209.749 185.433L210.398 185.502L210.649 186.251C206.911 190.407 199.571 198.803 195.4 201.886C187.488 207.733 165.869 211.34 155.893 212.731C155.132 212.311 155.508 212.624 154.93 211.623C179.136 183.201 175.72 193.047 208.612 185.692L209.749 185.433Z" fill="#7A0353"/>
<path d="M67.9141 676.402C77.5945 678.552 81.878 681.171 93.2003 682.695C97.6529 692.474 101.839 701.683 106.797 711.202C99.4792 709.844 91.503 705.976 81.2568 704.19L67.9141 676.402Z" fill="#7A0353"/>
<path d="M167.331 227.806C167.64 227.74 168.714 227.867 169.084 227.897C167.413 232.45 154.467 245.649 149.884 247.478C141.021 251.016 131.74 254.338 122.784 257.729L121.398 257.967C121.538 255.095 136.877 235.662 139.868 232.892C147.693 230.84 159.072 229.201 167.331 227.806Z" fill="#8A0663"/>
<path d="M131.165 270.69L132.019 271.223C129.398 277.298 125.875 283.989 122.999 290.137L96.1691 302.58L95.423 302.208C95.2968 299.73 105.576 281.043 107.57 277.423C115.472 274.685 123.087 272.795 131.165 270.69Z" fill="#8A0663"/>
<path d="M102.746 319.058C103.341 319.132 102.968 319.026 103.688 319.74C102.348 324.126 95.7739 336.449 93.5094 340.64C85.4528 344.797 78.5929 349.832 71.0105 354.801L70.1562 354.439C71.536 349.508 78.6691 333.17 81.1236 328.483C85.848 325.825 97.1758 321.39 102.746 319.058Z" fill="#8A0663"/>
<path d="M272.534 331.669C274.361 331.59 277.39 331.447 278.971 332.158C287.385 335.948 285.747 359.824 282.44 365.718C269.455 373.196 272.428 352.608 272.303 345.883C272.216 341.218 272.453 336.349 272.534 331.669Z" fill="#DFD9BE"/>
<path d="M173.406 329.486C175.296 330.092 175.232 329.979 176.66 331.322C178.869 336.091 178.81 358.953 177.607 363.997C175.938 365.963 174.127 365.994 171.53 366.569C163.589 362.66 166.27 341.599 167.537 334.082C167.948 331.651 171.323 330.345 173.406 329.486Z" fill="#DFD9BE"/>
<defs>
<linearGradient id="paint0_linear_993_27752" x1="511.127" y1="631.909" x2="510.452" y2="645.58" gradientUnits="userSpaceOnUse">
<stop stop-color="#EEC3C1"/>
<stop offset="1" stop-color="#FFEAE4"/>
</linearGradient>
</defs>
</svg>
